# xmcd
#
# Track frame offsets:
#	150
#	15790
#	32143
#	51241
#	67413
#	83724
#	100032
#	117750
#	134920
#	153303
#
# Disc length: 2254
#
# Revision: 2
# Processed by: cddbd v1.5.1PL0 Copyright (c) Steve Scherf et al.
# Submitted via: audiograbber 1.80.04
# Normalized: r1:DSETVAR1
#
DISCID=8008cc0a
DTITLE=Various Artist - Laser Hits Country Vol. 10
DYEAR=2000
DGENRE=Country
TTITLE0=Martina McBride - There You Are
TTITLE1=Toby Keith - Country Comes To Town
TTITLE2=Dixie Chicks - Cold Day In July
TTITLE3=Montgomery Gentry - Self Made Man
TTITLE4=Darryl Worley - When You Need My Love
TTITLE5=The Warren Brothers - That's The Beat Of A Heart
TTITLE6=Gary Allan - Lovin' You Against My Will
TTITLE7=The Wilkinsons - Shame On Me
TTITLE8=Keith Urban - Your Everything
TTITLE9=Lonestar - What About Now
EXTD=
EXTT0=
EXTT1=
EXTT2=
EXTT3=
EXTT4=
EXTT5=
EXTT6=
EXTT7=
EXTT8=
EXTT9=
PLAYORDER=
